<?xml version="1.0" standalone="no"?>
<!DOCTYPE svg PUBLIC "-//W3C//DTD SVG 1.1//EN" "http://www.w3.org/Graphics/SVG/1.1/DTD/svg11.dtd">
<svg version="1.1" xmlns="http://www.w3.org/2000/svg" viewBox="0 0 314.22882899853596 256.1059818347842" width="314.22882899853596" height="256.1059818347842"><!-- svg-source:excalidraw --><metadata></metadata><defs><style class="style-fonts">
      </style></defs><rect x="0" y="0" width="314.22882899853596" height="256.1059818347842" fill="#ffffff"></rect><g stroke-linecap="round"><g transform="translate(96.03436572471696 12.812549266815182) rotate(0 -41.733857600288786 54.139999101578255)"><path d="M-1.7 -0.22 C-15.13 17.97, -70.16 92.83, -83.09 111.09 M2.57 -2.81 C-11.12 14.46, -72.32 88.09, -86.03 107.36" stroke="#1e1e1e" stroke-width="4" fill="none"></path></g></g><mask></mask><g stroke-linecap="round"><g transform="translate(97.58595872748992 11.40783953710178) rotate(0 88.76536033868098 17.821075626275473)"><path d="M-1.3 2.35 C28.79 8.14, 149.43 28.77, 178.83 34.48 M3.19 1.16 C33.28 6.07, 149.71 24.57, 177.95 29.81" stroke="#1e1e1e" stroke-width="4" fill="none"></path></g></g><mask></mask><g stroke-linecap="round"><g transform="translate(273.0331474125227 43.77340387272392) rotate(0 -24.15418959744818 39.33113124834691)"><path d="M2.49 0.63 C-5.27 13.6, -40.08 67.72, -47.89 80.16 M0.4 -1.5 C-7.73 11.99, -43.26 63.53, -50.8 76.66" stroke="#1e1e1e" stroke-width="4" fill="none"></path></g></g><mask></mask><g stroke-linecap="round"><g transform="translate(226.95114113064005 120.88592260580006) rotate(0 -104.57095747119632 0.6740189716524299)"><path d="M-1.25 2.78 C-36.9 2.43, -176.34 -1.23, -211.43 -1.43 M3.27 1.82 C-32.77 1.71, -176.43 1.94, -212.41 1.06" stroke="#1e1e1e" stroke-width="4" fill="none"></path></g></g><mask></mask><g stroke-linecap="round"><g transform="translate(12.942043305651964 120.04721072957906) rotate(0 16.48916948054 53.32354133315505)"><path d="M2.32 -2.09 C8 15.57, 27.96 90.51, 32.84 108.74 M0.13 2.94 C5.73 20.92, 26.64 86.38, 31.65 104.23" stroke="#1e1e1e" stroke-width="4" fill="none"></path></g></g><mask></mask><g stroke-linecap="round"><g transform="translate(44.90416786442381 226.55668039854473) rotate(0 91.82711491074502 8.037095285149206)"><path d="M1.92 0.93 C32.22 3.58, 154.24 11.76, 184.13 13.77 M-0.48 -1.03 C29.3 2.24, 151.03 14.37, 182.27 17.1" stroke="#1e1e1e" stroke-width="4" fill="none"></path></g></g><mask></mask><g stroke-linecap="round"><g transform="translate(228.1161950365962 242.7594917380076) rotate(0 -0.06484310407518024 -61.908978086324936)"><path d="M0.68 -0.54 C-0.08 -21.24, -2.68 -103.35, -2.68 -123.28 M-2.39 -3.3 C-2.46 -23.72, 2.22 -100.15, 2.55 -120.36" stroke="#1e1e1e" stroke-width="4" fill="none"></path></g></g><mask></mask><g stroke-linecap="round"><g transform="translate(227.41496580205342 241.95647621478142) rotate(0 37.324296986627246 -36.88731260838455)"><path d="M-2.17 -1.31 C10.52 -13.54, 64.21 -61.4, 76.81 -73.94 M1.85 4.15 C14.22 -8.82, 62.37 -64.93, 75.25 -77.92" stroke="#1e1e1e" stroke-width="4" fill="none"></path></g></g><mask></mask><g stroke-linecap="round"><g transform="translate(302.62775345781904 167.549879970633) rotate(0 -15.429203289011127 -60.9702245666962)"><path d="M1.23 1.89 C-3.75 -18.53, -26.89 -102.82, -32.09 -123.83 M-1.54 0.44 C-5.46 -19.44, -21.8 -100.24, -26.85 -120.59" stroke="#1e1e1e" stroke-width="4" fill="none"></path></g></g><mask></mask></svg>